<?xml version="1.0" encoding="UTF-8"?>
<svg width="1024px" height="320px" viewBox="0 0 1024 320" xmlns="http://www.w3.org/2000/svg">
  <g fill="none" stroke="#CCCCCC" stroke-width="1">
    <path d="M0,1 L1024,1"></path>
    <path d="M0,21 L1024,21"></path>
    <path d="M0,41 L1024,41"></path>
    <path d="M0,61 L1024,61"></path>
    <path d="M0,81 L1024,81"></path>
    <path d="M0,101 L1024,101"></path>
    <path d="M0,121 L1024,121"></path>
    <path d="M0,141 L1024,141"></path>
    <polyline points="0 161 150 161 200 181 1024 181"></polyline>
    <polyline points="0 181 150 181 200 161 1024 161"></polyline>
    <path d="M0,201 L1024,201"></path>
    <path d="M0,221 L1024,221"></path>
    <path d="M0,241 L1024,241"></path>
    <path d="M0,261 L1024,261"></path>
    <path d="M0,281 L1024,281"></path>
    <path d="M0,301 L1024,301"></path>
  </g>
</svg>